<svg width="1075" height="40" viewBox="0 0 1075 40" fill="none" xmlns="http://www.w3.org/2000/svg">
<path d="M15.0502 5.08228C6.73838 5.08228 0 11.7611 0 19.9997C0 28.2391 6.73838 34.9176 15.0502 34.9176C23.3624 34.9176 30.1004 28.2392 30.1004 19.9997C30.1004 11.7616 23.3627 5.08299 15.05 5.08299L15.0502 5.08228V5.08228ZM21.9521 26.5975C21.6818 27.0369 21.1042 27.1746 20.6623 26.9069C17.1281 24.7659 12.6797 24.2822 7.44089 25.4684C6.93606 25.5832 6.43285 25.2695 6.31784 24.7692C6.20227 24.2689 6.51732 23.7701 7.02341 23.6561C12.7564 22.3569 17.6741 22.9161 21.641 25.3188C22.0831 25.5878 22.2233 26.1596 21.9519 26.5978L21.9521 26.5975V26.5975ZM23.7942 22.5362C23.4538 23.0836 22.7317 23.2553 22.1802 22.9191C18.1356 20.4548 11.9682 19.741 7.18318 21.1807C6.56261 21.3665 5.90717 21.0199 5.71883 20.4058C5.53192 19.7907 5.88184 19.1423 6.50133 18.9553C11.9671 17.3114 18.7619 18.1077 23.4077 20.9374C23.9594 21.2741 24.1337 21.9902 23.7941 22.5363L23.7942 22.5362ZM23.9524 18.3065C19.101 15.4508 11.0989 15.1882 6.4677 16.5814C5.72404 16.805 4.93758 16.3889 4.71222 15.6517C4.48685 14.9143 4.90631 14.1353 5.65053 13.9112C10.9668 12.3115 19.8045 12.6206 25.3891 15.9067C26.058 16.3002 26.2774 17.1564 25.8809 17.8186C25.4856 18.4816 24.6193 18.7002 23.9526 18.3065H23.9524V18.3065ZM40.9466 18.8537C38.3481 18.2395 37.8855 17.8084 37.8855 16.9026C37.8855 16.0469 38.6983 15.471 39.9071 15.471C41.0789 15.471 42.2408 15.9083 43.4589 16.8086C43.4957 16.8358 43.5419 16.8467 43.5874 16.8396C43.6329 16.8328 43.6731 16.808 43.6997 16.7708L44.9685 14.998C45.0207 14.925 45.0065 14.8243 44.9362 14.7686C43.4864 13.6155 41.8538 13.0549 39.9456 13.0549C37.1398 13.0549 35.18 14.7238 35.18 17.1118C35.18 19.6724 36.8706 20.5792 39.7921 21.279C42.2787 21.8468 42.6984 22.3224 42.6984 23.1726C42.6984 24.1148 41.8497 24.7005 40.484 24.7005C38.9672 24.7005 37.73 24.1941 36.346 23.0061C36.3117 22.9767 36.2646 22.9633 36.2211 22.9658C36.1753 22.9696 36.1334 22.9906 36.1043 23.0253L34.6816 24.7035C34.622 24.7732 34.6295 24.8772 34.6985 24.9374C36.3088 26.3623 38.2893 27.115 40.4265 27.115C43.4499 27.115 45.4037 25.4775 45.4037 22.9432C45.409 20.8038 44.1169 19.6192 40.952 18.8561L40.9466 18.8537V18.8537ZM52.2437 16.3135C50.9332 16.3135 49.8583 16.8251 48.972 17.8735V16.6935C48.972 16.6003 48.8958 16.5244 48.8019 16.5244H46.4751C46.3811 16.5244 46.3051 16.6003 46.3051 16.6935V29.8046C46.3051 29.8978 46.3811 29.9736 46.4751 29.9736H48.8019C48.8958 29.9736 48.972 29.8978 48.972 29.8046V25.666C49.8585 26.6521 50.9336 27.134 52.2437 27.134C54.6788 27.134 57.1438 25.2761 57.1438 21.7244C57.1474 18.1718 54.6816 16.3133 52.2464 16.3133L52.2437 16.3135ZM54.4381 21.7244C54.4381 23.533 53.3141 24.7951 51.7048 24.7951C50.1137 24.7951 48.9136 23.4756 48.9136 21.7244C48.9136 19.9733 50.1137 18.6537 51.7048 18.6537C53.2881 18.6535 54.4383 19.9446 54.4383 21.7242L54.4381 21.7244V21.7244ZM63.4618 16.3135C60.3259 16.3135 57.8691 18.707 57.8691 21.763C57.8691 24.7858 60.309 27.1541 63.4233 27.1541C66.5704 27.1541 69.0347 24.7687 69.0347 21.7244C69.0347 18.6906 66.5869 16.3139 63.4616 16.3139L63.4618 16.3135V16.3135ZM63.4618 24.8131C61.7938 24.8131 60.5363 23.4847 60.5363 21.7235C60.5363 19.9548 61.7503 18.6713 63.4233 18.6713C65.1021 18.6713 66.368 19.9997 66.368 21.7621C66.368 23.5305 65.1459 24.8131 63.462 24.8131H63.4618V24.8131ZM75.7312 16.5244H73.1707V13.9297C73.1707 13.8367 73.0949 13.7608 73.0009 13.7608H70.6745C70.5803 13.7608 70.5039 13.8367 70.5039 13.9297V16.5244H69.3852C69.2915 16.5244 69.2157 16.6003 69.2157 16.6935V18.6756C69.2157 18.7686 69.2915 18.8446 69.3852 18.8446H70.5039V23.9733C70.5039 26.0459 71.5447 27.0968 73.5972 27.0968C74.4319 27.0968 75.1243 26.9259 75.7769 26.5592C75.8299 26.5298 75.8628 26.4731 75.8628 26.4129V24.5254C75.8628 24.4671 75.8322 24.4121 75.7819 24.3816C75.7312 24.3501 75.6681 24.3485 75.6162 24.374C75.1679 24.5975 74.7347 24.7007 74.2503 24.7007C73.5038 24.7007 73.1707 24.3647 73.1707 23.6117V18.8456H75.7312C75.8252 18.8456 75.9009 18.7697 75.9009 18.6765V16.6946C75.9044 16.6014 75.829 16.5255 75.7337 16.5255L75.7312 16.5244V16.5244ZM84.6525 16.5346V16.2159C84.6525 15.2784 85.0151 14.8603 85.8285 14.8603C86.3136 14.8603 86.7032 14.9558 87.1396 15.1001C87.1933 15.1168 87.2494 15.1084 87.2931 15.0765C87.338 15.0447 87.3634 14.9935 87.3634 14.9394V12.9959C87.3634 12.9216 87.3152 12.8559 87.2429 12.834C86.7819 12.6981 86.1921 12.5586 85.309 12.5586C83.1599 12.5586 82.0239 13.7582 82.0239 16.0264V16.5144H80.906C80.8122 16.5144 80.7353 16.5903 80.7353 16.6833V18.6756C80.7353 18.7686 80.8122 18.8446 80.906 18.8446H82.0239V26.7554C82.0239 26.8486 82.0997 26.9245 82.1936 26.9245H84.5204C84.6144 26.9245 84.6909 26.8486 84.6909 26.7554V18.8452H86.8634L90.1912 26.754C89.8135 27.585 89.442 27.7503 88.9348 27.7503C88.5249 27.7503 88.0932 27.629 87.6518 27.3896C87.6103 27.367 87.561 27.3633 87.5163 27.377C87.4719 27.3925 87.4345 27.4252 87.4156 27.468L86.627 29.1829C86.5895 29.264 86.6216 29.3591 86.7004 29.4011C87.5236 29.8431 88.2668 30.0317 89.1853 30.0317C90.9035 30.0317 91.8531 29.2385 92.6902 27.1044L96.7269 16.7654C96.7472 16.7134 96.7411 16.6546 96.7089 16.6085C96.6769 16.5627 96.6253 16.5351 96.5689 16.5351H94.1466C94.0741 16.5351 94.0091 16.5809 93.9854 16.6484L91.5041 23.6737L88.7862 16.6438C88.7614 16.5784 88.6978 16.5351 88.6273 16.5351H84.6519L84.6525 16.5346V16.5346ZM79.4801 16.5244H77.1533C77.0593 16.5244 76.9828 16.6003 76.9828 16.6935V26.7555C76.9828 26.8486 77.0593 26.9245 77.1533 26.9245H79.4801C79.574 26.9245 79.6507 26.8486 79.6507 26.7555V16.6942C79.6507 16.672 79.6464 16.6499 79.6378 16.6294C79.6292 16.6089 79.6166 16.5902 79.6008 16.5745C79.5849 16.5588 79.5661 16.5463 79.5453 16.5379C79.5246 16.5294 79.5024 16.5251 79.4799 16.5251L79.4801 16.5244ZM78.3299 11.943C77.4082 11.943 76.6602 12.6826 76.6602 13.5963C76.6602 14.5104 77.4083 15.251 78.3299 15.251C79.2514 15.251 79.9986 14.5104 79.9986 13.5963C79.9986 12.6828 79.251 11.943 78.3309 11.943H78.3299V11.943ZM98.7137 19.7596C97.7928 19.7596 97.0763 19.0265 97.0763 18.1364C97.0763 17.2462 97.8021 16.5048 98.7223 16.5048C99.6432 16.5048 100.36 17.2377 100.36 18.1271C100.36 19.0173 99.6336 19.7596 98.7135 19.7596H98.7137V19.7596ZM98.7226 16.6662C97.8839 16.6662 97.2493 17.3271 97.2493 18.1364C97.2493 18.9453 97.8794 19.5973 98.7142 19.5973C99.5528 19.5973 100.188 18.9369 100.188 18.1271C100.188 17.3182 99.5573 16.6662 98.7234 16.6662H98.7226V16.6662ZM99.0857 18.294L99.5488 18.9367H99.1583L98.7414 18.3471H98.3828V18.9367H98.0559V17.2331H98.8224C99.2218 17.2331 99.4843 17.4356 99.4843 17.7766C99.4861 18.0559 99.3226 18.2265 99.0872 18.294H99.0857V18.294ZM98.8089 17.5254H98.3826V18.0642H98.8089C99.0217 18.0642 99.1488 17.9611 99.1488 17.7946C99.1488 17.6193 99.0212 17.5254 98.8091 17.5254H98.8089V17.5254Z" fill="#666666"/>
<path d="M312.881 18.5792V16.1215H309.812V12.3007L309.709 12.3323L306.826 13.2094L306.77 13.2266V16.1216H302.22V14.5089C302.22 13.7579 302.389 13.1832 302.722 12.7999C303.052 12.4213 303.525 12.2288 304.128 12.2288C304.561 12.2288 305.01 12.3303 305.461 12.5305L305.574 12.5808V9.99249L305.521 9.97302C305.1 9.82242 304.527 9.74658 303.817 9.74658C302.922 9.74658 302.108 9.94031 301.399 10.3242C300.689 10.7087 300.131 11.2576 299.74 11.9554C299.35 12.6524 299.152 13.4575 299.152 14.3484V16.1215H297.016V18.5792H299.152V28.9331H302.22V18.5792H306.77V25.159C306.77 27.8688 308.055 29.2421 310.59 29.2421C311.006 29.2421 311.445 29.1935 311.892 29.0985C312.348 29.0009 312.658 28.9034 312.841 28.7993L312.881 28.7755V26.2951L312.756 26.3771C312.59 26.4875 312.383 26.5776 312.14 26.6447C311.895 26.713 311.692 26.7472 311.534 26.7472C310.94 26.7472 310.5 26.588 310.228 26.274C309.952 25.9571 309.812 25.403 309.812 24.6278V18.5792H312.881ZM290.165 26.7476C289.052 26.7476 288.174 26.3804 287.555 25.6571C286.933 24.9302 286.617 23.8939 286.617 22.5771C286.617 21.2186 286.933 20.1554 287.555 19.4156C288.174 18.6808 289.044 18.3078 290.14 18.3078C291.204 18.3078 292.05 18.664 292.657 19.3671C293.266 20.0739 293.576 21.1286 293.576 22.5029C293.576 23.8941 293.285 24.9628 292.711 25.6777C292.142 26.3872 291.285 26.7476 290.165 26.7476V26.7476ZM290.301 15.8129C288.177 15.8129 286.49 16.4319 285.287 17.6528C284.085 18.8738 283.475 20.5635 283.475 22.6754C283.475 24.6813 284.07 26.2948 285.244 27.4703C286.417 28.6461 288.015 29.2418 289.991 29.2418C292.05 29.2418 293.703 28.6141 294.906 27.3763C296.108 26.1399 296.717 24.4661 296.717 22.4036C296.717 20.3663 296.146 18.7408 295.018 17.5732C293.89 16.405 292.302 15.8129 290.301 15.8129V15.8129ZM278.529 15.8129C277.084 15.8129 275.889 16.1805 274.976 16.9052C274.057 17.6343 273.591 18.5905 273.591 19.7475C273.591 20.349 273.692 20.8832 273.89 21.3364C274.089 21.791 274.397 22.1913 274.806 22.5273C275.213 22.8605 275.84 23.2096 276.671 23.5647C277.37 23.8506 277.891 24.0925 278.222 24.2831C278.545 24.4699 278.775 24.6577 278.905 24.8406C279.031 25.0196 279.095 25.2646 279.095 25.5668C279.095 26.4276 278.446 26.8464 277.113 26.8464C276.618 26.8464 276.054 26.7436 275.436 26.5411C274.822 26.3417 274.243 26.0496 273.718 25.6751L273.591 25.5843V28.5215L273.638 28.5431C274.072 28.7424 274.619 28.9104 275.264 29.0427C275.908 29.175 276.493 29.2423 277.001 29.2423C278.569 29.2423 279.832 28.873 280.753 28.1439C281.68 27.4099 282.15 26.4311 282.15 25.234C282.15 24.3704 281.897 23.6299 281.398 23.0326C280.903 22.4402 280.044 21.8963 278.845 21.4156C277.89 21.0344 277.278 20.7179 277.026 20.475C276.782 20.2403 276.659 19.9084 276.659 19.4881C276.659 19.1155 276.811 18.817 277.124 18.5753C277.44 18.3324 277.879 18.2088 278.43 18.2088C278.941 18.2088 279.464 18.2891 279.984 18.4465C280.504 18.6038 280.96 18.8146 281.341 19.0724L281.466 19.1576V16.3713L281.418 16.3508C281.067 16.2009 280.603 16.0726 280.04 15.9685C279.48 15.8651 278.971 15.8129 278.529 15.8129V15.8129ZM265.594 26.7476C264.481 26.7476 263.603 26.3804 262.984 25.6571C262.362 24.9302 262.047 23.8941 262.047 22.5771C262.047 21.2186 262.362 20.1554 262.985 19.4156C263.603 18.6808 264.473 18.3078 265.569 18.3078C266.633 18.3078 267.479 18.664 268.086 19.3671C268.696 20.0739 269.005 21.1286 269.005 22.5029C269.005 23.8941 268.714 24.9628 268.14 25.6777C267.571 26.3872 266.714 26.7476 265.594 26.7476V26.7476ZM265.731 15.8129C263.606 15.8129 261.919 16.4319 260.716 17.6528C259.514 18.8738 258.904 20.5635 258.904 22.6754C258.904 24.6822 259.5 26.2948 260.673 27.4703C261.847 28.6461 263.444 29.2418 265.42 29.2418C267.479 29.2418 269.133 28.6141 270.335 27.3763C271.538 26.1399 272.147 24.4661 272.147 22.4036C272.147 20.3663 271.575 18.7408 270.447 17.5732C269.318 16.405 267.732 15.8129 265.731 15.8129V15.8129ZM254.248 18.3402V16.1215H251.217V28.9329H254.248V22.3794C254.248 21.265 254.502 20.3495 255.003 19.658C255.498 18.9748 256.158 18.6286 256.963 18.6286C257.236 18.6286 257.542 18.6733 257.874 18.7619C258.202 18.8499 258.44 18.9455 258.581 19.046L258.708 19.1378V16.0996L258.659 16.0787C258.377 15.9594 257.977 15.8993 257.472 15.8993C256.711 15.8993 256.029 16.1426 255.446 16.6217C254.933 17.0428 254.563 17.6202 254.28 18.3402H254.248ZM245.791 15.8129C244.401 15.8129 243.161 16.1093 242.106 16.6938C241.049 17.2795 240.232 18.1158 239.676 19.1792C239.122 20.24 238.841 21.4791 238.841 22.861C238.841 24.0715 239.113 25.1824 239.652 26.1614C240.191 27.142 240.954 27.9092 241.92 28.4413C242.884 28.9728 243.998 29.2422 245.232 29.2422C246.672 29.2422 247.902 28.9559 248.888 28.3912L248.928 28.3685V25.6075L248.8 25.7C248.354 26.0235 247.855 26.2817 247.318 26.4677C246.782 26.6536 246.294 26.7476 245.866 26.7476C244.677 26.7476 243.722 26.3776 243.029 25.6481C242.335 24.9177 241.983 23.892 241.983 22.6013C241.983 21.3026 242.35 20.2506 243.074 19.4743C243.795 18.7004 244.751 18.3078 245.916 18.3078C246.912 18.3078 247.882 18.6432 248.801 19.3056L248.928 19.3974V16.4883L248.887 16.4653C248.541 16.2729 248.07 16.1141 247.485 15.9936C246.902 15.8734 246.332 15.8129 245.791 15.8129V15.8129ZM236.754 16.1216H233.724V28.9329H236.754V16.1216V16.1216ZM235.27 10.664C234.771 10.664 234.336 10.8328 233.979 11.1674C233.62 11.5029 233.438 11.9254 233.438 12.424C233.438 12.9147 233.617 13.3295 233.973 13.6561C234.326 13.9818 234.762 14.1468 235.27 14.1468C235.777 14.1468 236.215 13.9818 236.572 13.6566C236.932 13.3295 237.114 12.9148 237.114 12.424C237.114 11.9428 236.937 11.5247 236.587 11.1809C236.238 10.8378 235.794 10.664 235.27 10.664ZM227.709 15.1764V28.9329H230.801V11.0561H226.521L221.081 24.3345L215.801 11.0561H211.347V28.9327H214.253V15.1751H214.353L219.928 28.9329H222.121L227.609 15.1764H227.709V15.1764Z" fill="#666666"/>
<path d="M186.615 19.2592H172.36V5.08228H186.615V19.2592Z" fill="#666666"/>
<path d="M202.354 19.2592H188.099V5.08228H202.354V19.2592Z" fill="#666666"/>
<path d="M186.614 34.9175H172.36V20.7407H186.614V34.9175Z" fill="#666666"/>
<path d="M202.354 34.9175H188.099V20.7407H202.354V34.9175Z" fill="#666666"/>
<path d="M441.58 16.0973H421.042L420.309 16.6809V34.8447H425.957V27.9876L426.47 27.4771H441.58C445.394 27.4771 447.155 26.4559 447.155 23.8299V19.6718C447.155 17.1185 445.395 16.0973 441.58 16.0973ZM441.58 22.8083C441.58 24.0483 440.774 24.2672 438.94 24.2672H426.544L425.957 23.7567V19.8905L426.47 19.3799H438.94C440.7 19.3799 441.58 19.5987 441.58 20.8387L441.58 22.8083V22.8083ZM457.571 19.5257L462.485 26.6745L462.192 27.3311H451.336L448.549 30.7596H464.685L465.859 31.4161L468.353 34.8446H474.881L460.578 15.8784L457.571 19.5257ZM522.338 31.1972V26.091L522.925 25.5803H533.854V22.3706H516.544V34.8446H542.069V31.6349H522.998L522.338 31.1972ZM516.544 16.0973H542.289V19.5987H516.544V16.0973ZM487.864 19.4528H508.622C508.329 16.8267 506.641 16.0973 502.534 16.0973H487.644C482.95 16.0973 481.483 16.9727 481.483 20.547V30.4677C481.483 33.9693 482.95 34.9176 487.644 34.9176H502.534C506.715 34.9176 508.329 34.1151 508.475 31.4161H487.864L487.277 30.8324V19.8905L487.864 19.4528ZM406.373 23.392H391.336L390.896 22.8814V19.6718L391.336 19.3071H411.654L411.947 18.6505C411.287 16.8997 409.453 16.0244 406.153 16.0244H391.996C387.302 16.0244 385.835 16.8998 385.835 20.4741V22.5896C385.835 26.0911 387.302 27.0395 391.996 27.0395H407.033L407.473 27.477V30.8325L407.106 31.3432H385.395C385.395 31.3432 384.881 31.6349 384.881 31.7079C385.248 34.1881 386.935 34.8446 390.969 34.8446H406.373C411.067 34.8446 412.607 33.9693 412.607 30.3949V27.8417C412.607 24.3403 411.067 23.392 406.373 23.392V23.392ZM558.5 16.0244H549.991L549.551 16.8997L558.94 23.7568C560.7 22.7354 562.681 21.7143 564.734 20.6929L558.5 16.0244ZM566.128 28.863L574.417 34.8446H582.925L583.292 34.0421L570.969 25.0697C569.355 26.3097 567.668 27.5499 566.128 28.863Z" fill="#666666"/>
<path d="M557.253 34.8449H549.551L548.891 33.8235C554.099 28.7903 577.424 7.34388 628.108 5.08252C628.109 5.08252 585.639 6.54137 557.253 34.8449Z" fill="#666666"/>
<g clip-path="url(#clip0_48_37)">
<path d="M742.37 29.3289V35.0001H738.813V16.5381H742.37V17.4213C743.429 16.7326 744.663 16.361 745.926 16.3503C749.965 16.3503 752.935 19.5614 752.935 23.387C752.935 27.2125 749.993 30.4236 745.926 30.4236C744.658 30.4257 743.418 30.0441 742.37 29.3289ZM742.37 21.7034V24.9678C742.65 25.5652 743.086 26.0762 743.632 26.4472C744.178 26.8183 744.813 27.0358 745.472 27.0769C746.131 27.1181 746.789 26.9814 747.376 26.6811C747.964 26.3809 748.46 25.9282 748.813 25.3704C749.166 24.8125 749.362 24.1701 749.381 23.5104C749.401 22.8507 749.242 22.1979 748.923 21.6204C748.603 21.0429 748.134 20.5619 747.565 20.2279C746.996 19.8938 746.347 19.7189 745.687 19.7214C745.005 19.7118 744.333 19.8921 743.747 20.242C743.162 20.592 742.685 21.098 742.37 21.7034Z" fill="#666666"/>
<path d="M754.862 12.8172C754.85 12.5479 754.894 12.2792 754.99 12.0274C755.086 11.7756 755.233 11.5461 755.421 11.3531C755.609 11.16 755.834 11.0075 756.084 10.9049C756.333 10.8022 756.6 10.7516 756.87 10.7562C757.143 10.7514 757.414 10.8013 757.668 10.9029C757.921 11.0045 758.152 11.1557 758.347 11.3477C758.541 11.5396 758.695 11.7685 758.8 12.0209C758.904 12.2732 758.958 12.544 758.956 12.8172C758.951 13.3666 758.728 13.8916 758.337 14.2779C757.947 14.6643 757.419 14.8807 756.87 14.8801C756.602 14.8789 756.337 14.8243 756.09 14.7195C755.843 14.6147 755.62 14.4618 755.433 14.2697C755.246 14.0777 755.1 13.8503 755.001 13.6009C754.903 13.3515 754.856 13.0851 754.862 12.8172ZM755.077 16.538H758.69V30.2101H755.077V16.538Z" fill="#666666"/>
<path d="M760.828 23.3356C760.82 22.4154 760.997 21.503 761.348 20.6521C761.698 19.8013 762.215 19.029 762.868 18.3808C763.522 17.7326 764.298 17.2215 765.151 16.8775C766.005 16.5336 766.918 16.3638 767.839 16.378C769.097 16.3787 770.335 16.691 771.443 17.287V16.5381H774.976V29.4336C774.976 32.9905 771.897 34.9191 768.046 34.9191C765.531 34.9191 763.122 34.1701 761.543 32.943L763.015 30.4019C764.516 31.3631 766.264 31.8652 768.046 31.8463C770.534 31.8463 771.31 30.8583 771.417 29.2518C770.346 29.9373 769.103 30.3077 767.831 30.3209C763.736 30.3169 760.828 27.2679 760.828 23.3356ZM771.443 24.8591V21.8101C771.144 21.1739 770.671 20.6352 770.079 20.2562C769.487 19.8772 768.8 19.6733 768.097 19.6681C767.612 19.6634 767.131 19.7547 766.681 19.9367C766.231 20.1187 765.821 20.3879 765.476 20.7287C765.13 21.0695 764.855 21.4753 764.667 21.9227C764.479 22.3701 764.381 22.8502 764.379 23.3356C764.379 25.448 765.983 26.9201 768.072 26.9201C768.773 26.9384 769.464 26.7535 770.062 26.3878C770.66 26.0221 771.14 25.4912 771.443 24.8591Z" fill="#666666"/>
<path d="M777.12 23.3356C777.113 22.4154 777.29 21.503 777.64 20.6521C777.99 19.8013 778.507 19.029 779.161 18.3808C779.814 17.7326 780.59 17.2215 781.444 16.8775C782.297 16.5336 783.211 16.3638 784.131 16.378C785.392 16.3776 786.633 16.6899 787.743 17.287V16.5381H791.274V29.4336C791.274 32.9905 788.198 34.9191 784.346 34.9191C781.831 34.9191 779.422 34.1701 777.843 32.943L779.315 30.4019C780.816 31.3635 782.564 31.8655 784.346 31.8463C786.834 31.8463 787.611 30.8583 787.717 29.2518C786.646 29.937 785.403 30.3074 784.131 30.3209C780.037 30.3169 777.12 27.2679 777.12 23.3356ZM787.743 24.8591V21.8101C787.444 21.1741 786.971 20.6355 786.379 20.2565C785.787 19.8775 785.101 19.6736 784.398 19.6681C783.912 19.6634 783.431 19.7547 782.981 19.9367C782.531 20.1187 782.121 20.3879 781.776 20.7287C781.43 21.0695 781.155 21.4753 780.967 21.9227C780.779 22.3701 780.681 22.8502 780.679 23.3356C780.679 25.448 782.283 26.9201 784.372 26.9201C785.073 26.9381 785.764 26.7532 786.362 26.3875C786.96 26.0218 787.44 25.4911 787.743 24.8591Z" fill="#666666"/>
<path d="M796.463 16.5381L800.05 25.6614L803.741 16.5381H807.495L799.621 35.0001H796.278L798.254 30.0778L792.505 16.5381H796.463Z" fill="#666666"/>
<path d="M806.814 16.5381H810.639L814.125 25.7701L817.577 16.5381H821.332L815.846 30.2102H812.248L806.814 16.5381Z" fill="#666666"/>
<path d="M821.584 23.2803C821.584 19.429 824.339 16.2437 828.647 16.2437C832.634 16.2437 835.664 19.2413 835.737 23.1795C835.764 23.5181 835.764 23.8585 835.737 24.1971H824.956C825.062 26.1238 826.908 27.3805 828.888 27.3805C830.52 27.3805 831.482 26.926 832.607 25.9973L834.561 28.0583C832.98 29.7162 831.399 30.4928 828.888 30.4928C824.26 30.4789 821.584 27.0268 821.584 23.2803ZM825.141 21.6481H832.046C831.698 20.3656 830.465 19.2413 828.593 19.2413C826.426 19.2413 825.517 20.338 825.141 21.6481Z" fill="#666666"/>
<path d="M836.484 28.7398L838.232 25.9023C839.802 26.9485 841.642 27.5156 843.528 27.5345C845.322 27.5345 846.231 27.08 846.231 26.3054C846.231 25.7956 845.803 25.4221 844.894 25.2344L841.139 24.4321C838.385 23.8393 837.126 22.5331 837.126 20.3931C837.126 18.1187 839.053 16.2178 843.04 16.2178C845.447 16.2178 847.585 16.9153 849.059 17.8243L847.427 20.5532C846.224 19.911 844.619 19.2154 842.931 19.2154C841.408 19.2154 840.525 19.5908 840.525 20.2844C840.525 20.7409 840.847 21.0353 841.728 21.1954L844.89 21.7882C848.314 22.4561 849.632 23.9816 849.632 26.0426C849.632 29.0066 846.668 30.5637 843.423 30.5637C840.986 30.6108 838.583 29.9794 836.484 28.7398Z" fill="#666666"/>
<path d="M850.344 16.5379H852.377V12.7657L855.934 10.4656V16.5379H858.02V19.6422H855.936V30.212H852.379V19.6422H850.342V16.5379H850.344Z" fill="#666666"/>
<path d="M729.907 18.7375C729.848 17.8696 729.705 17.0094 729.482 16.1687C728.464 12.4142 726.32 9.46005 723.052 7.35163C720.993 6.01278 718.629 5.218 716.179 5.04166C715.15 4.9665 714.116 4.9943 713.093 5.12465C712.015 5.26737 710.955 5.52506 709.931 5.89333C707.206 6.87639 704.827 8.6346 703.088 10.9517C701.349 13.2688 700.325 16.0437 700.142 18.9351C700.108 19.4666 700.108 20.0021 700.108 20.5357V33.5063C700.108 33.8433 700.242 34.1664 700.481 34.4047C700.719 34.643 701.042 34.7769 701.379 34.7769H706.39C706.704 34.7749 707.006 34.658 707.239 34.4482C707.472 34.2384 707.62 33.9503 707.655 33.6387V33.6387C707.688 33.5169 707.705 33.3914 707.706 33.2652V32.9649C707.703 32.9419 707.703 32.9187 707.706 32.8957V32.8621C707.74 32.8712 707.773 32.8866 707.801 32.9075C709.675 33.9441 711.751 34.5641 713.887 34.7255C714.743 34.7888 715.602 34.7802 716.456 34.6998C718.467 34.5146 720.418 33.9198 722.19 32.952C723.962 31.9841 725.517 30.6637 726.759 29.0721C728.53 26.8446 729.613 24.1495 729.877 21.3162C729.967 20.4594 729.977 19.5961 729.907 18.7375V18.7375ZM717.695 27.0249C717.686 27.0706 717.662 27.1117 717.625 27.141C717.589 27.1702 717.544 27.1858 717.497 27.185H712.557C712.511 27.1858 712.466 27.1702 712.429 27.141C712.393 27.1117 712.369 27.0706 712.36 27.0249V26.9933V26.8095C712.359 26.5828 712.384 26.3567 712.435 26.1357C712.466 26.0606 712.486 25.9717 712.518 25.8887C712.549 25.8057 712.581 25.7287 712.613 25.6476C712.644 25.5666 712.696 25.4935 712.739 25.4243L712.81 25.3176C712.857 25.2486 712.908 25.1826 712.962 25.12C713.02 25.0489 713.077 24.9876 713.134 24.9224C713.432 24.6301 713.793 24.4109 714.19 24.2822C713.848 24.0962 713.578 23.8017 713.422 23.4453C713.266 23.0888 713.233 22.6906 713.328 22.3135C713.424 21.9363 713.642 21.6015 713.948 21.3619C714.255 21.1223 714.632 20.9915 715.021 20.9901C715.486 20.9937 715.931 21.1788 716.26 21.5059C716.451 21.698 716.595 21.9318 716.68 22.1889C716.766 22.446 716.79 22.7194 716.752 22.9875C716.713 23.2557 716.613 23.5112 716.46 23.7342C716.306 23.9571 716.102 24.1413 715.865 24.2723C716.399 24.4482 716.863 24.7883 717.192 25.244C717.52 25.6997 717.697 26.2477 717.695 26.8095C717.695 26.8807 717.695 26.9577 717.695 27.0249ZM726.212 16.2635H703.851C703.809 16.2632 703.768 16.253 703.731 16.2336C703.693 16.2143 703.661 16.1864 703.637 16.1523C703.613 16.1181 703.597 16.0787 703.591 16.0372C703.585 15.9958 703.589 15.9534 703.602 15.9137C704.436 13.5492 705.984 11.5017 708.03 10.0534C710.077 8.60517 712.523 7.82743 715.03 7.82743C717.538 7.82743 719.983 8.60517 722.03 10.0534C724.077 11.5017 725.624 13.5492 726.459 15.9137C726.472 15.9533 726.476 15.9954 726.47 16.0368C726.464 16.0781 726.448 16.1174 726.424 16.1515C726.4 16.1856 726.368 16.2135 726.331 16.233C726.294 16.2524 726.253 16.2629 726.212 16.2635V16.2635Z" fill="#666666"/>
</g>
<g clip-path="url(#clip1_48_37)">
<path d="M950.015 0C946.774 0.00125761 943.581 0.790284 940.712 2.29914C937.844 3.808 935.385 5.99148 933.547 8.66158C931.71 11.3317 930.549 14.4084 930.164 17.6268C929.779 20.8452 930.183 24.1089 931.339 27.1368C932.496 30.1647 934.371 32.8661 936.804 35.0085C939.236 37.1508 942.152 38.6699 945.302 39.435C948.452 40.2 951.74 40.188 954.884 39.4001C958.029 38.6121 960.934 37.0718 963.351 34.9118C960.98 36.5026 958.191 37.354 955.336 37.3583C950.57 37.3583 946.308 34.9944 943.441 31.2645C941.227 28.6604 939.794 24.803 939.696 20.4728V19.5272C939.794 15.197 941.227 11.3396 943.433 8.72796C946.308 5.00563 950.57 2.64916 955.336 2.64916C958.263 2.64916 961.009 3.53471 963.351 5.09568C959.824 1.94371 955.186 0.0225141 950.097 0H950.022H950.015Z" fill="url(#paint0_linear_48_37)"/>
<path d="M950.015 0C946.774 0.00125761 943.581 0.790284 940.712 2.29914C937.844 3.808 935.385 5.99148 933.547 8.66158C931.71 11.3317 930.549 14.4084 930.164 17.6268C929.779 20.8452 930.183 24.1089 931.339 27.1368C932.496 30.1647 934.371 32.8661 936.804 35.0085C939.236 37.1508 942.152 38.6699 945.302 39.435C948.452 40.2 951.74 40.188 954.884 39.4001C958.029 38.6121 960.934 37.0718 963.351 34.9118C960.98 36.5026 958.191 37.354 955.336 37.3583C950.57 37.3583 946.308 34.9944 943.441 31.2645C941.227 28.6604 939.794 24.803 939.696 20.4728V19.5272C939.794 15.197 941.227 11.3396 943.433 8.72796C946.308 5.00563 950.57 2.64916 955.336 2.64916C958.263 2.64916 961.009 3.53471 963.351 5.09568C959.824 1.94371 955.186 0.0225141 950.097 0H950.022H950.015Z" fill="white" style="mix-blend-mode:color"/>
<path d="M943.433 8.72791C945.272 6.56655 947.636 5.26074 950.232 5.26074C956.056 5.26074 960.777 11.8649 960.777 19.9999C960.777 28.1425 956.056 34.7392 950.232 34.7392C947.643 34.7392 945.279 33.4333 943.441 31.272C946.308 34.9943 950.57 37.3583 955.336 37.3583C958.262 37.3583 961.009 36.4652 963.351 34.9118C965.451 33.0372 967.132 30.7396 968.282 28.1696C969.432 25.5996 970.025 22.8154 970.022 19.9999C970.022 14.0712 967.448 8.75042 963.358 5.08813C960.988 3.49657 958.198 2.64504 955.343 2.6416C950.578 2.6416 946.315 5.00558 943.448 8.73541" fill="url(#paint1_linear_48_37)"/>
<path d="M943.433 8.72791C945.272 6.56655 947.636 5.26074 950.232 5.26074C956.056 5.26074 960.777 11.8649 960.777 19.9999C960.777 28.1425 956.056 34.7392 950.232 34.7392C947.643 34.7392 945.279 33.4333 943.441 31.272C946.308 34.9943 950.57 37.3583 955.336 37.3583C958.262 37.3583 961.009 36.4652 963.351 34.9118C965.451 33.0372 967.132 30.7396 968.282 28.1696C969.432 25.5996 970.025 22.8154 970.022 19.9999C970.022 14.0712 967.448 8.75042 963.358 5.08813C960.988 3.49657 958.198 2.64504 955.343 2.6416C950.578 2.6416 946.315 5.00558 943.448 8.73541" fill="white" style="mix-blend-mode:color"/>
<path d="M991.193 3.63989C983.929 3.63989 978.022 9.83126 978.022 17.4485C978.022 25.0583 983.929 31.2572 991.193 31.2572C998.458 31.2572 1004.36 25.0583 1004.36 17.4485C1004.36 9.83126 998.458 3.63989 991.193 3.63989ZM991.193 5.71119C997.317 5.70368 1002.29 10.972 1002.29 17.4485C1002.29 23.9176 997.317 29.1784 991.193 29.1784C985.077 29.1784 980.094 23.9176 980.094 17.4485C980.094 10.972 985.069 5.71119 991.193 5.71119ZM1015.4 10.9269C1012.67 10.9269 1010.32 12.2178 1008.72 14.2515V11.3847H1006.55V36.3603H1008.72V27.4072C1009.51 28.439 1010.52 29.276 1011.67 29.8528C1012.83 30.4295 1014.11 30.7304 1015.4 30.7318C1020.47 30.7318 1024.6 26.289 1024.6 20.8256C1024.6 15.3697 1020.47 10.9269 1015.4 10.9269ZM1065.69 10.9269C1060.63 10.9269 1056.5 15.3697 1056.5 20.8331C1056.5 26.289 1060.63 30.7393 1065.69 30.7393C1068.42 30.7393 1070.77 29.441 1072.37 27.4072V30.214H1074.55V11.3772H1072.37V14.259C1071.59 13.2268 1070.58 12.3895 1069.42 11.8127C1068.26 11.2359 1066.99 10.9353 1065.69 10.9345V10.9269ZM1035.75 10.9645C1030.67 10.9645 1026.55 15.3997 1026.55 20.8632C1026.55 26.3191 1030.68 30.7543 1035.74 30.7543C1039.37 30.7543 1042.52 28.4879 1044.01 25.1934L1042.13 24.0977C1041.02 26.7543 1038.58 28.6005 1035.75 28.6005C1032.07 28.6005 1029.05 25.5011 1028.73 21.5461H1044.92C1044.93 21.3209 1044.94 21.0958 1044.94 20.8557C1044.94 15.0245 1041.16 10.9495 1035.75 10.9495L1035.73 10.9645H1035.75ZM1055.01 11.0095C1054.25 11.0395 1053.55 11.2346 1052.89 11.5949C1051.54 12.3142 1050.49 13.486 1049.92 14.9044C1049.91 14.942 1049.89 14.9795 1049.87 15.002H1049.85V11.5048H1047.67V30.229H1049.85V30.0939V20.4129C1049.83 19.1785 1050.06 17.9524 1050.53 16.8106C1050.92 15.8023 1051.55 14.902 1052.36 14.184C1052.81 13.7679 1053.36 13.4616 1053.95 13.2886C1054.54 13.1155 1055.16 13.0804 1055.77 13.1859L1056.41 13.3059C1056.53 12.683 1056.83 11.8951 1056.96 11.2722C1056.36 11.0996 1055.56 11.002 1055 11.0245L1055.01 11.0095ZM1015.4 13.0808C1019.28 13.0808 1022.44 16.563 1022.44 20.8331C1022.44 25.1108 1019.28 28.578 1015.39 28.578C1011.5 28.578 1008.35 25.1033 1008.35 20.8331C1008.35 16.5555 1011.51 13.0808 1015.4 13.0808V13.0808ZM1065.69 13.0808C1069.58 13.0808 1072.74 16.563 1072.74 20.8331C1072.74 25.1108 1069.57 28.578 1065.68 28.578C1061.8 28.578 1058.64 25.1033 1058.64 20.8331C1058.64 16.5555 1061.8 13.0808 1065.69 13.0808V13.0808ZM1035.73 13.1108C1039.58 13.1108 1042.26 15.6999 1042.71 19.6624H1028.78C1029.3 15.9626 1032.22 13.1108 1035.73 13.1108Z" fill="#666666"/>
</g>
<defs>
<linearGradient id="paint0_linear_48_37" x1="946.683" y1="0.652908" x2="946.683" y2="39.4146" gradientUnits="userSpaceOnUse">
<stop stop-color="#FF1B2D"/>
<stop offset="0.3" stop-color="#FF1B2D"/>
<stop offset="0.6" stop-color="#FF1B2D"/>
<stop offset="1" stop-color="#A70014"/>
</linearGradient>
<linearGradient id="paint1_linear_48_37" x1="956.732" y1="2.93428" x2="956.732" y2="37.2232" gradientUnits="userSpaceOnUse">
<stop stop-color="#9C0000"/>
<stop offset="0.7" stop-color="#FF4B4B"/>
<stop offset="1" stop-color="#FF4B4B"/>
</linearGradient>
<clipPath id="clip0_48_37">
<rect width="157.914" height="30" fill="white" transform="translate(700.108 5)"/>
</clipPath>
<clipPath id="clip1_48_37">
<rect width="144.54" height="40" fill="white" transform="translate(930.022)"/>
</clipPath>
</defs>
</svg>
